<?xml version="1.0" standalone="no"?>
<!DOCTYPE svg PUBLIC "-//W3C//DTD SVG 20010904//EN"
 "http://www.w3.org/TR/2001/REC-SVG-20010904/DTD/svg10.dtd">
<svg version="1.0" xmlns="http://www.w3.org/2000/svg"
 width="1024.000000pt" height="1024.000000pt" viewBox="0 0 1024.000000 1024.000000"
 preserveAspectRatio="xMidYMid meet">
<metadata>
Created by potrace 1.14, written by Peter Selinger 2001-2017
</metadata>
<g transform="translate(0.000000,1024.000000) scale(0.100000,-0.100000)"
fill="#000000" stroke="none">
<path d="M6770 7780 c0 -200 -3 -261 -12 -264 -7 -2 -60 -11 -117 -20 -57 -9
-151 -32 -209 -51 -495 -166 -749 -547 -703 -1054 27 -300 142 -504 386 -686
124 -93 365 -218 645 -335 226 -95 337 -159 412 -237 141 -147 144 -455 5
-601 -135 -142 -451 -125 -609 33 -80 81 -127 204 -143 377 l-7 68 -321 2
-322 3 -5 415 c-5 392 -7 419 -28 480 -70 209 -248 367 -487 431 -120 33 -403
38 -535 11 -253 -52 -447 -179 -539 -351 -36 -68 -61 -158 -61 -218 l0 -43
300 0 300 0 0 30 c0 70 56 150 119 171 59 20 160 15 208 -9 79 -41 110 -105
120 -248 l6 -91 -191 -6 c-304 -11 -434 -36 -591 -113 -159 -78 -263 -203
-302 -364 -20 -82 -17 -253 5 -320 33 -98 68 -154 140 -226 80 -80 166 -132
276 -166 65 -20 95 -23 225 -23 133 1 157 4 210 24 78 31 150 78 200 129 22
23 43 42 46 42 3 0 11 -21 17 -47 6 -27 18 -65 26 -85 l16 -38 238 0 237 -1
55 -86 c133 -208 377 -371 671 -447 l94 -24 3 -791 2 -791 215 0 215 0 0 530
0 530 65 0 65 0 2 247 3 247 96 17 c53 9 121 24 152 33 133 39 276 -45 324
-188 16 -46 18 -121 21 -733 l3 -683 214 0 215 0 0 675 0 676 26 51 c79 156
204 226 388 216 200 -11 284 -93 306 -299 5 -52 10 -370 10 -706 l0 -613 215
0 215 0 0 648 c0 644 -6 779 -36 896 -54 208 -192 347 -398 400 -141 37 -321
29 -458 -18 -104 -37 -174 -82 -263 -172 l-81 -81 -29 49 c-29 48 -93 115
-143 150 l-24 16 52 63 c57 71 122 194 146 275 8 30 18 54 22 54 4 0 21 -9 37
-21 164 -111 356 -156 623 -146 509 19 827 298 774 679 -39 274 -246 425 -727
528 -173 37 -256 71 -302 124 -28 31 -33 45 -33 87 0 76 32 124 110 165 53 28
191 26 246 -3 61 -32 91 -74 105 -143 l12 -60 298 0 299 0 0 33 c-1 112 -64
252 -159 350 -109 113 -264 190 -448 222 -110 19 -357 20 -455 1 -287 -55
-496 -221 -562 -445 -23 -80 -21 -226 4 -302 36 -106 95 -183 194 -253 124
-88 255 -140 488 -196 239 -56 335 -107 353 -188 16 -74 -39 -157 -124 -187
-59 -21 -194 -20 -262 2 -37 12 -69 32 -101 64 -39 39 -49 56 -59 108 l-13 61
-137 0 c-76 0 -140 4 -143 9 -4 5 -18 49 -31 96 -54 187 -165 345 -340 488
-103 84 -390 239 -682 368 -279 123 -396 207 -454 325 -28 56 -33 78 -37 163
-8 161 27 262 119 345 68 61 131 80 248 74 104 -6 165 -31 232 -98 76 -76 116
-185 134 -362 l7 -68 414 0 414 0 0 56 c0 90 -28 258 -60 354 -71 217 -193
389 -371 520 -124 93 -308 171 -472 201 l-67 12 0 269 0 268 -195 0 -195 0 0
-260z m-1600 -2675 l0 -155 -40 -43 c-21 -24 -63 -57 -92 -73 -48 -26 -62 -29
-149 -29 -87 0 -99 2 -136 27 -49 32 -77 87 -77 153 0 130 69 231 184 266 14
4 89 8 168 8 l142 1 0 -155z"/>
<path d="M3182 5778 l3 -1373 300 0 300 0 3 1373 2 1372 -305 0 -305 0 2
-1372z"/>
<path d="M1662 7040 c-406 -42 -723 -296 -872 -699 -69 -187 -95 -405 -87
-721 7 -289 36 -444 117 -632 147 -343 427 -556 794 -607 99 -14 292 -14 393
0 493 67 823 387 869 842 l7 67 -311 0 c-341 0 -322 4 -322 -63 0 -18 -6 -54
-14 -82 -41 -156 -144 -247 -311 -276 -93 -16 -235 -7 -306 20 -152 57 -239
215 -269 487 -15 132 -8 659 10 744 35 173 106 307 194 367 70 48 141 66 260
65 203 -2 325 -62 390 -190 24 -47 56 -177 56 -227 l0 -25 311 0 312 0 -7 65
c-15 144 -93 347 -180 469 -109 153 -285 280 -469 340 -149 49 -397 73 -565
56z"/>
<path d="M1905 4219 c-114 -23 -240 -111 -322 -224 l-22 -30 -1 90 c-1 149 21
135 -216 135 l-204 0 0 -965 0 -965 215 0 215 0 0 658 0 657 30 51 c79 139
239 205 461 190 l98 -7 3 197 3 196 -23 9 c-37 14 -183 19 -237 8z"/>
<path d="M3075 4220 c-213 -28 -418 -136 -539 -285 -106 -129 -179 -297 -212
-486 -23 -133 -15 -420 15 -534 67 -252 184 -429 364 -549 164 -109 279 -140
512 -140 191 1 269 18 415 91 80 40 110 63 191 143 184 182 267 384 284 691
34 582 -276 1009 -775 1069 -95 11 -166 11 -255 0z m320 -379 c132 -66 221
-196 258 -381 64 -310 -3 -648 -156 -786 -98 -89 -228 -127 -362 -105 -199 33
-324 172 -375 421 -19 91 -21 127 -17 270 7 246 51 382 160 497 121 128 330
163 492 84z"/>
<path d="M5145 4219 c-99 -13 -167 -34 -270 -84 -250 -120 -417 -363 -470
-684 -26 -154 -17 -419 19 -556 87 -331 318 -572 621 -647 108 -26 350 -31
450 -9 292 65 528 277 626 564 49 145 62 227 62 412 1 233 -29 378 -113 545
-170 340 -515 511 -925 459z m320 -373 c101 -46 195 -155 236 -274 87 -249 71
-578 -38 -785 -86 -162 -261 -248 -448 -218 -144 24 -254 108 -319 244 -54
115 -67 182 -73 372 -4 145 -2 184 15 269 63 301 248 455 511 424 34 -4 87
-18 116 -32z"/>
</g>
</svg>
