<?xml version="1.0" standalone="no"?>
<!DOCTYPE svg PUBLIC "-//W3C//DTD SVG 20010904//EN"
 "http://www.w3.org/TR/2001/REC-SVG-20010904/DTD/svg10.dtd">
<svg version="1.0" xmlns="http://www.w3.org/2000/svg"
 width="700.000000pt" height="700.000000pt" viewBox="0 0 700.000000 700.000000"
 preserveAspectRatio="xMidYMid meet">
<metadata>
Created by potrace 1.14, written by Peter Selinger 2001-2017
</metadata>
<g transform="translate(0.000000,700.000000) scale(0.100000,-0.100000)"
fill="#000000" stroke="none">
<path d="M4460 4860 c0 -126 -1 -130 -22 -134 -13 -2 -50 -10 -83 -16 -33 -6
-98 -30 -145 -52 -204 -98 -306 -291 -272 -519 32 -225 146 -332 517 -489 182
-77 245 -134 259 -237 22 -164 -94 -264 -258 -222 -91 23 -152 102 -164 213
l-7 61 -202 3 -201 2 -4 253 c-3 247 -3 253 -29 307 -48 103 -125 168 -249
211 -54 19 -87 23 -190 23 -220 0 -361 -59 -451 -190 -30 -44 -65 -156 -54
-174 4 -6 75 -10 181 -10 174 0 174 0 174 23 0 64 73 116 147 104 77 -13 113
-64 113 -162 l0 -55 -114 0 c-259 0 -436 -77 -499 -218 -32 -72 -35 -200 -7
-275 81 -215 420 -299 593 -146 l45 39 17 -50 17 -50 179 0 c98 0 179 4 179 8
0 4 -9 33 -20 65 -30 86 -24 90 15 8 78 -162 237 -266 468 -305 l37 -7 0 -124
0 -124 -122 -3 -123 -3 -3 -292 -2 -293 280 0 280 0 0 45 0 45 -200 0 -200 0
0 85 0 85 170 0 170 0 0 45 0 45 -170 0 -170 0 0 75 0 75 200 0 200 0 0 45 0
45 -55 0 -55 0 0 123 0 124 83 17 c221 47 373 183 411 368 l12 60 27 -41 c34
-52 131 -123 201 -150 89 -33 212 -46 319 -33 201 25 332 103 390 231 43 95
21 248 -46 319 -64 69 -182 122 -362 162 -156 35 -195 60 -195 125 0 68 48
105 138 105 68 0 109 -28 124 -85 l12 -45 179 0 180 0 -7 43 c-10 66 -62 162
-109 202 -199 171 -593 163 -766 -14 -62 -64 -91 -136 -91 -229 0 -162 116
-271 360 -338 52 -14 118 -32 147 -40 70 -19 113 -56 113 -98 0 -63 -57 -106
-143 -106 -93 0 -163 45 -173 112 l-7 38 -147 0 -148 0 -11 46 c-45 177 -176
289 -521 443 -199 89 -244 138 -244 261 0 121 51 181 160 188 68 5 106 -10
148 -55 32 -34 56 -103 56 -160 l0 -43 215 0 214 0 -5 53 c-26 263 -166 433
-414 502 l-75 21 -3 132 -3 132 -94 0 -95 0 0 -130z m-940 -1346 c0 -94 -1
-97 -30 -124 -40 -38 -91 -53 -151 -48 -81 8 -114 58 -97 147 16 86 71 120
196 121 l82 0 0 -96z"/>
<path d="M2352 3918 l3 -813 178 -3 177 -2 0 815 0 815 -180 0 -180 0 2 -812z"/>
<path d="M1360 4644 c-216 -57 -370 -221 -442 -469 -21 -73 -23 -99 -22 -305
0 -199 3 -234 22 -305 36 -133 85 -220 171 -306 128 -127 251 -173 461 -172
207 1 347 51 466 168 86 84 147 213 156 330 l3 40 -185 0 -185 0 -6 -50 c-8
-64 -28 -104 -73 -143 -44 -39 -99 -54 -194 -54 -127 1 -196 54 -238 182 -25
79 -32 463 -10 568 37 176 108 242 262 242 160 0 230 -60 260 -222 l6 -38 184
0 184 0 -6 43 c-39 254 -210 442 -449 492 -90 19 -292 18 -365 -1z"/>
<path d="M2790 2620 c-107 -14 -202 -70 -247 -147 -31 -53 -43 -170 -24 -240
27 -101 120 -175 252 -201 185 -36 363 34 422 168 27 60 29 177 4 242 -21 54
-89 121 -151 149 -37 16 -162 41 -191 37 -5 0 -35 -4 -65 -8z m186 -116 c55
-41 69 -69 73 -156 4 -98 -9 -146 -50 -186 -57 -56 -182 -65 -251 -18 -47 32
-70 78 -76 154 -7 111 22 181 90 216 48 24 176 19 214 -10z"/>
<path d="M1500 2325 l0 -295 82 0 81 0 -6 217 -5 216 22 -39 c12 -21 64 -119
116 -216 l94 -178 55 0 56 0 107 203 c60 111 112 208 116 215 5 7 6 -84 4
-203 l-5 -215 82 0 81 0 -2 293 -3 292 -104 0 -105 0 -110 -212 c-61 -117
-114 -213 -117 -213 -4 0 -56 96 -117 213 l-110 212 -106 3 -106 3 0 -296z"/>
<path d="M3350 2325 l0 -295 80 0 80 0 2 200 3 199 174 -199 174 -200 79 0 78
0 0 295 0 296 -77 -3 -78 -3 -5 -196 -5 -196 -174 198 -174 199 -79 0 -78 0 0
-295z"/>
<path d="M4780 2613 c0 -5 61 -89 135 -187 l135 -179 0 -109 0 -108 80 0 80 0
0 105 0 105 141 188 140 187 -77 3 c-42 2 -83 1 -89 -2 -7 -2 -52 -63 -100
-135 -49 -72 -91 -128 -95 -126 -4 3 -47 63 -96 135 l-88 130 -83 0 c-46 0
-83 -3 -83 -7z"/>
</g>
</svg>
